<svg width="73" height="73" viewBox="0 0 73 73" fill="none" xmlns="http://www.w3.org/2000/svg">
<circle cx="36.5" cy="36.5" r="36.5" fill="#EBF3FF"/>
<path d="M52.25 26.5625L42.25 34.5625C41.5 35.1875 40.5 35.1875 39.75 34.625L33 29.5625L24.25 36.5625C23.375 37.25 22.125 37.125 21.4375 36.25C20.75 35.4375 20.875 34.125 21.75 33.4375L31.75 25.4375C32.4375 24.875 33.4375 24.875 34.1875 25.4375L40.9375 30.5L49.75 23.4375C50.5625 22.75 51.875 22.9375 52.5625 23.75C53.25 24.625 53.0625 25.875 52.25 26.5625ZM31 37C31 35.9375 31.875 35 33 35C34.0625 35 35 35.9375 35 37V49C35 50.125 34.0625 51 33 51C31.875 51 31 50.125 31 49V37ZM23 43C23 41.9375 23.875 41 25 41C26.0625 41 27 41.9375 27 43V49C27 50.125 26.0625 51 25 51C23.875 51 23 50.125 23 49V43ZM41 39C42.0625 39 43 39.9375 43 41V49C43 50.125 42.0625 51 41 51C39.875 51 39 50.125 39 49V41C39 39.9375 39.875 39 41 39ZM47 37C47 35.9375 47.875 35 49 35C50.0625 35 51 35.9375 51 37V49C51 50.125 50.0625 51 49 51C47.875 51 47 50.125 47 49V37Z" fill="url(#paint0_linear_2112_1893)"/>
<defs>
<linearGradient id="paint0_linear_2112_1893" x1="22.0291" y1="24.3712" x2="55.9008" y2="31.4331" gradientUnits="userSpaceOnUse">
<stop offset="0.131699" stop-color="#5C80BB"/>
<stop offset="0.240385" stop-color="#5A7DB8"/>
<stop offset="0.355769" stop-color="#5678B2"/>
<stop offset="0.485577" stop-color="#4A6AA1"/>
<stop offset="0.596154" stop-color="#47669D"/>
<stop offset="0.706731" stop-color="#395487"/>
<stop offset="0.769231" stop-color="#365082"/>
<stop offset="0.862764" stop-color="#2E4778"/>
<stop offset="0.956298" stop-color="#233968"/>
</linearGradient>
</defs>
</svg>
