<svg width="73" height="73" viewBox="0 0 73 73" fill="none" xmlns="http://www.w3.org/2000/svg">
<circle cx="36.5" cy="36.5" r="36.5" fill="#EBF3FF"/>
<path d="M53.1875 27.5C55.0625 30.4375 53.4375 34.5 49.9375 35C49.6875 35 49.4375 35 49.1875 35C47.5625 35 46.125 34.3125 45.125 33.1875C44.125 34.3125 42.6875 35 41.0625 35C39.4375 35 37.9375 34.3125 36.9375 33.1875C36 34.3125 34.5 35 32.875 35C31.25 35 29.8125 34.3125 28.8125 33.1875C27.8125 34.3125 26.375 35 24.75 35C24.5 35 24.25 35 24 35C20.5 34.5 18.875 30.4375 20.75 27.5L24.3125 21.875C24.625 21.3125 25.1875 21 25.8125 21H48.125C48.75 21 49.3125 21.3125 49.625 21.875L53.1875 27.5ZM50.1875 36.9375C50.5 36.9375 50.75 36.875 51 36.8125V45V49C51 51.25 49.1875 53 47 53H27C24.75 53 23 51.25 23 49V45V36.8125C23.1875 36.875 23.4375 36.9375 23.75 36.9375C24.0625 37 24.375 37 24.75 37C25.5 37 26.25 36.9375 27 36.6875V45H47V36.6875C47.6875 36.9375 48.4375 37 49.1875 37C49.5 37 49.875 37 50.1875 36.9375Z" fill="url(#paint0_linear_2112_1901)"/>
<defs>
<linearGradient id="paint0_linear_2112_1901" x1="20.1578" y1="24.3712" x2="57.8464" y2="33.2111" gradientUnits="userSpaceOnUse">
<stop offset="0.131699" stop-color="#5C80BB"/>
<stop offset="0.240385" stop-color="#5A7DB8"/>
<stop offset="0.355769" stop-color="#5678B2"/>
<stop offset="0.485577" stop-color="#4A6AA1"/>
<stop offset="0.596154" stop-color="#47669D"/>
<stop offset="0.706731" stop-color="#395487"/>
<stop offset="0.769231" stop-color="#365082"/>
<stop offset="0.862764" stop-color="#2E4778"/>
<stop offset="0.956298" stop-color="#233968"/>
</linearGradient>
</defs>
</svg>
