<svg width="73" height="73" viewBox="0 0 73 73" fill="none" xmlns="http://www.w3.org/2000/svg">
<circle cx="36.5" cy="36.5" r="36.5" fill="#EBF3FF"/>
<path d="M37 21C39.25 21 41.25 22.3125 42.25 24.25C44.3125 23.5625 46.6875 24.0625 48.3125 25.6875C49.9375 27.3125 50.4375 29.6875 49.75 31.75C51.6875 32.75 53 34.75 53 37C53 39.3125 51.6875 41.3125 49.75 42.3125C50.4375 44.375 49.9375 46.6875 48.3125 48.3125C46.6875 49.9375 44.3125 50.4375 42.25 49.8125C41.25 51.75 39.25 53 37 53C34.6875 53 32.6875 51.75 31.6875 49.8125C29.625 50.4375 27.3125 49.9375 25.6875 48.3125C24.0625 46.6875 23.5625 44.375 24.1875 42.3125C22.25 41.3125 21 39.3125 21 37C21 34.75 22.25 32.75 24.1875 31.75C23.5625 29.6875 24.0625 27.3125 25.6875 25.6875C27.3125 24.0625 29.625 23.5625 31.6875 24.25C32.6875 22.3125 34.6875 21 37 21ZM44.0625 34.0625C44.625 33.5 44.625 32.5625 44.0625 32C43.4375 31.375 42.5 31.375 41.9375 32L35 38.9375L32.0625 36C31.4375 35.375 30.5 35.375 29.9375 36C29.3125 36.5625 29.3125 37.5 29.9375 38.0625L33.9375 42.0625C34.5 42.6875 35.4375 42.6875 36.0625 42.0625L44.0625 34.0625Z" fill="url(#paint0_linear_2112_1933)"/>
<defs>
<linearGradient id="paint0_linear_2112_1933" x1="22.0291" y1="24.3712" x2="55.9008" y2="31.4331" gradientUnits="userSpaceOnUse">
<stop offset="0.131699" stop-color="#5C80BB"/>
<stop offset="0.240385" stop-color="#5A7DB8"/>
<stop offset="0.355769" stop-color="#5678B2"/>
<stop offset="0.485577" stop-color="#4A6AA1"/>
<stop offset="0.596154" stop-color="#47669D"/>
<stop offset="0.706731" stop-color="#395487"/>
<stop offset="0.769231" stop-color="#365082"/>
<stop offset="0.862764" stop-color="#2E4778"/>
<stop offset="0.956298" stop-color="#233968"/>
</linearGradient>
</defs>
</svg>
