<svg width="73" height="73" viewBox="0 0 73 73" fill="none" xmlns="http://www.w3.org/2000/svg">
<circle cx="36.5" cy="36.5" r="36.5" fill="#EBF3FF"/>
<path d="M21.3125 21.25L24.3125 23.25C25 23.75 25.1875 24.6875 24.75 25.375C24.25 26.0625 23.3125 26.25 22.625 25.75L19.625 23.75C18.9375 23.3125 18.75 22.375 19.25 21.6875C19.6875 21 20.625 20.8125 21.3125 21.25ZM54.3125 23.75L51.3125 25.75C50.625 26.25 49.6875 26.0625 49.25 25.375C48.75 24.6875 48.9375 23.75 49.625 23.25L52.625 21.25C53.3125 20.8125 54.25 21 54.75 21.6875C55.1875 22.375 55 23.3125 54.3125 23.75ZM18.5 31H22.5C23.3125 31 24 31.6875 24 32.5C24 33.375 23.3125 34 22.5 34H18.5C17.625 34 17 33.375 17 32.5C17 31.6875 17.625 31 18.5 31ZM51.5 31H55.5C56.3125 31 57 31.6875 57 32.5C57 33.375 56.3125 34 55.5 34H51.5C50.625 34 50 33.375 50 32.5C50 31.6875 50.625 31 51.5 31ZM24.3125 41.75L21.3125 43.75C20.625 44.25 19.6875 44.0625 19.25 43.375C18.75 42.6875 18.9375 41.75 19.625 41.25L22.625 39.25C23.3125 38.8125 24.25 39 24.75 39.6875C25.1875 40.375 25 41.3125 24.3125 41.75ZM51.3125 39.3125L54.3125 41.3125C55 41.75 55.1875 42.6875 54.75 43.375C54.25 44.0625 53.3125 44.25 52.625 43.8125L49.625 41.8125C48.9375 41.3125 48.75 40.375 49.25 39.6875C49.6875 39 50.625 38.8125 51.3125 39.3125ZM45.0625 39.625C43.8125 41.3125 42.5625 43.0625 42 45H32C31.375 43.0625 30.125 41.3125 28.875 39.625C28.5625 39.1875 28.25 38.75 27.9375 38.3125C26.6875 36.5 26 34.375 26 32C26 25.9375 30.875 21 37 21C43.0625 21 48 25.9375 48 32C48 34.375 47.25 36.5 46 38.3125C45.6875 38.75 45.375 39.1875 45.0625 39.625ZM42 48C42 50.8125 39.75 53 37 53C34.1875 53 32 50.8125 32 48V47H42V48ZM37 27C37.5 27 38 26.5625 38 26C38 25.5 37.5 25 37 25C33.125 25 30 28.1875 30 32C30 32.5625 30.4375 33 31 33C31.5 33 32 32.5625 32 32C32 29.25 34.1875 27 37 27Z" fill="url(#paint0_linear_2112_1909)"/>
<defs>
<linearGradient id="paint0_linear_2112_1909" x1="18.2864" y1="24.3712" x2="59.6566" y2="35.1528" gradientUnits="userSpaceOnUse">
<stop offset="0.131699" stop-color="#5C80BB"/>
<stop offset="0.240385" stop-color="#5A7DB8"/>
<stop offset="0.355769" stop-color="#5678B2"/>
<stop offset="0.485577" stop-color="#4A6AA1"/>
<stop offset="0.596154" stop-color="#47669D"/>
<stop offset="0.706731" stop-color="#395487"/>
<stop offset="0.769231" stop-color="#365082"/>
<stop offset="0.862764" stop-color="#2E4778"/>
<stop offset="0.956298" stop-color="#233968"/>
</linearGradient>
</defs>
</svg>
