<svg width="73" height="73" viewBox="0 0 73 73" fill="none" xmlns="http://www.w3.org/2000/svg">
<circle cx="36.5" cy="36.5" r="36.5" fill="#EBF3FF"/>
<path d="M25 21H45C47.1875 21 49 22.8125 49 25V49C49 51.25 47.1875 53 45 53H25C22.75 53 21 51.25 21 49V25C21 22.8125 22.75 21 25 21ZM25 28V30C25 30.5625 25.4375 31 26 31H28C28.5 31 29 30.5625 29 30V28C29 27.5 28.5 27 28 27H26C25.4375 27 25 27.5 25 28ZM25 44V46C25 46.5625 25.4375 47 26 47H28C28.5 47 29 46.5625 29 46V44C29 43.5 28.5 43 28 43H26C25.4375 43 25 43.5 25 44ZM34 44C33.4375 44 33 44.5 33 45C33 45.5625 33.4375 46 34 46H44C44.5 46 45 45.5625 45 45C45 44.5 44.5 44 44 44H34ZM33 29C33 29.5625 33.4375 30 34 30H44C44.5 30 45 29.5625 45 29C45 28.5 44.5 28 44 28H34C33.4375 28 33 28.5 33 29ZM34 36C33.4375 36 33 36.5 33 37C33 37.5625 33.4375 38 34 38H44C44.5 38 45 37.5625 45 37C45 36.5 44.5 36 44 36H34ZM30.6875 34.3125C30.3125 33.9375 29.625 33.9375 29.25 34.3125L27 36.625L26.1875 35.8125C25.8125 35.4375 25.125 35.4375 24.75 35.8125C24.375 36.1875 24.375 36.875 24.75 37.25L26.25 38.75C26.625 39.125 27.3125 39.125 27.6875 38.75L30.6875 35.75C31.0625 35.375 31.0625 34.6875 30.6875 34.3125Z" fill="url(#paint0_linear_2112_1917)"/>
<defs>
<linearGradient id="paint0_linear_2112_1917" x1="21.9005" y1="24.3712" x2="51.8304" y2="29.8313" gradientUnits="userSpaceOnUse">
<stop offset="0.131699" stop-color="#5C80BB"/>
<stop offset="0.240385" stop-color="#5A7DB8"/>
<stop offset="0.355769" stop-color="#5678B2"/>
<stop offset="0.485577" stop-color="#4A6AA1"/>
<stop offset="0.596154" stop-color="#47669D"/>
<stop offset="0.706731" stop-color="#395487"/>
<stop offset="0.769231" stop-color="#365082"/>
<stop offset="0.862764" stop-color="#2E4778"/>
<stop offset="0.956298" stop-color="#233968"/>
</linearGradient>
</defs>
</svg>
