<svg width="73" height="73" viewBox="0 0 73 73" fill="none" xmlns="http://www.w3.org/2000/svg">
<circle cx="36.5" cy="36.5" r="36.5" fill="#EBF3FF"/>
<path d="M37 24C29.8125 24 24 29.875 24 37V39.5C24 40.375 23.3125 41 22.5 41C21.625 41 21 40.375 21 39.5V37C21 28.1875 28.125 21 37 21C45.8125 21 53 28.1875 53 37V46.0625C53 49.0625 50.5 51.5625 47.4375 51.5625L40.5625 51.5C40.0625 52.4375 39.0625 53 38 53H36C34.3125 53 33 51.6875 33 50C33 48.375 34.3125 47 36 47H38C39.0625 47 40.0625 47.625 40.5625 48.5L47.5 48.5625C48.875 48.5625 50 47.4375 50 46.0625V37C50 29.875 44.125 24 37 24ZM30 34H31C32.0625 34 33 34.9375 33 36V43C33 44.125 32.0625 45 31 45H30C27.75 45 26 43.25 26 41V38C26 35.8125 27.75 34 30 34ZM44 34C46.1875 34 48 35.8125 48 38V41C48 43.25 46.1875 45 44 45H43C41.875 45 41 44.125 41 43V36C41 34.9375 41.875 34 43 34H44Z" fill="url(#paint0_linear_2112_1925)"/>
<defs>
<linearGradient id="paint0_linear_2112_1925" x1="22.0291" y1="24.3712" x2="55.9008" y2="31.4331" gradientUnits="userSpaceOnUse">
<stop offset="0.131699" stop-color="#5C80BB"/>
<stop offset="0.240385" stop-color="#5A7DB8"/>
<stop offset="0.355769" stop-color="#5678B2"/>
<stop offset="0.485577" stop-color="#4A6AA1"/>
<stop offset="0.596154" stop-color="#47669D"/>
<stop offset="0.706731" stop-color="#395487"/>
<stop offset="0.769231" stop-color="#365082"/>
<stop offset="0.862764" stop-color="#2E4778"/>
<stop offset="0.956298" stop-color="#233968"/>
</linearGradient>
</defs>
</svg>
