<svg width="15" height="21" viewBox="0 0 15 21" fill="none" xmlns="http://www.w3.org/2000/svg">
<path d="M13.75 7.5C13.75 4.0625 10.9375 1.25 7.5 1.25C4.02344 1.25 1.25 4.0625 1.25 7.5C1.25 8.125 1.44531 8.94531 1.875 10C2.30469 11.0156 2.89062 12.1094 3.59375 13.2031C4.92187 15.3516 6.48437 17.4219 7.5 18.6719C8.47656 17.4219 10.0391 15.3516 11.4062 13.2031C12.0703 12.1094 12.6562 11.0156 13.0859 10C13.5156 8.94531 13.75 8.125 13.75 7.5ZM15 7.5C15 10.9375 10.4297 16.9922 8.39844 19.5312C7.92969 20.1172 7.03125 20.1172 6.5625 19.5312C4.57031 16.9922 -8.80733e-08 10.9375 -6.16032e-08 7.5C-2.97187e-08 3.35938 3.35937 0 7.5 0C11.6406 0 15 3.35937 15 7.5ZM5.625 7.5C5.625 8.20312 5.97656 8.78906 6.5625 9.14062C7.10937 9.49219 7.85156 9.49219 8.4375 9.14062C8.98437 8.78906 9.375 8.20312 9.375 7.5C9.375 6.83594 8.98437 6.25 8.4375 5.89844C7.85156 5.54687 7.10937 5.54687 6.5625 5.89844C5.97656 6.25 5.625 6.83594 5.625 7.5ZM7.5 10.625C6.36719 10.625 5.35156 10.0391 4.76562 9.0625C4.21875 8.125 4.21875 6.91406 4.76562 5.9375C5.35156 5 6.36719 4.375 7.5 4.375C8.59375 4.375 9.60937 5 10.1953 5.9375C10.7422 6.91406 10.7422 8.125 10.1953 9.0625C9.60937 10.0391 8.59375 10.625 7.5 10.625Z" fill="white"/>
</svg>
