<svg width="20" height="15" viewBox="0 0 20 15" fill="none" xmlns="http://www.w3.org/2000/svg">
<path d="M2.5 1.25C1.79687 1.25 1.25 1.83594 1.25 2.5L1.25 4.0625L8.86719 9.6875C9.53125 10.1562 10.4297 10.1562 11.0937 9.6875L18.75 4.0625L18.75 2.5C18.75 1.83594 18.1641 1.25 17.5 1.25L2.5 1.25ZM1.25 5.625L1.25 12.5C1.25 13.2031 1.79687 13.75 2.5 13.75L17.5 13.75C18.1641 13.75 18.75 13.2031 18.75 12.5L18.75 5.625L11.8359 10.7031C10.7422 11.4844 9.21875 11.4844 8.125 10.7031L1.25 5.625ZM-4.23522e-08 2.5C-3.18243e-08 1.13281 1.09375 0 2.5 0L17.5 0C18.8672 0 20 1.13281 20 2.5L20 12.5C20 13.9062 18.8672 15 17.5 15L2.5 15C1.09375 15 -1.30185e-07 13.9062 -1.19356e-07 12.5L-4.23522e-08 2.5Z" fill="white"/>
</svg>
