<svg width="21" height="21" viewBox="0 0 21 21" fill="none" xmlns="http://www.w3.org/2000/svg">
<path d="M14.6484 10.8984L19.0234 12.7734C19.7266 13.0469 20.1172 13.7891 19.9609 14.5312L19.0234 18.9062C18.8672 19.6094 18.2422 20.1562 17.5 20.1562C17.2266 20.1562 16.9922 20.1172 16.7578 20.1172C16.6016 20.1172 16.4062 20.1172 16.25 20.0781C7.14844 19.4531 -9.439e-08 11.875 -2.31012e-08 2.61719C-1.76868e-08 1.91406 0.507812 1.25 1.21094 1.09375L5.58594 0.15625C6.32812 0 7.07031 0.390625 7.34375 1.09375L9.21875 5.46875C9.49219 6.09375 9.33594 6.83594 8.78906 7.26562L7.1875 8.59375C8.24219 10.3906 9.72656 11.875 11.5234 12.9297L12.8516 11.3281C13.2812 10.7812 14.0234 10.625 14.6484 10.8984ZM17.4609 18.8672C17.6172 18.8672 17.7344 18.7891 17.7734 18.6328L18.7109 14.2578C18.75 14.1016 18.6719 13.9844 18.5547 13.9062L14.1797 12.0312C14.0234 11.9922 13.9062 12.0312 13.7891 12.1094L12.5 13.7109C12.1094 14.1797 11.4453 14.2969 10.8984 13.9844C8.90625 12.8516 7.26562 11.2109 6.13281 9.21875C5.82031 8.67187 5.9375 8.00781 6.40625 7.61719L8.00781 6.32812C8.08594 6.21094 8.125 6.09375 8.08594 5.9375L6.21094 1.5625C6.13281 1.44531 6.01562 1.36719 5.85937 1.40625L1.48437 2.34375C1.32812 2.34375 1.25 2.5 1.25 2.61719C1.25 11.6016 8.51562 18.8672 17.4609 18.8672Z" fill="white"/>
</svg>
