<svg width="56" height="56" viewBox="0 0 56 56" fill="none" xmlns="http://www.w3.org/2000/svg">
<rect width="56" height="56" rx="28" fill="#C6D2EC"/>
<path d="M28.1406 20.0312C28.9375 19.375 29.9219 19 30.9531 19C31.7969 19 32.6406 19.2812 33.3437 19.7031L36.7656 21.9062L36.9531 22H37L37 30.8594L30.4844 24.8594L31.4219 24.1094C31.75 23.875 31.8437 23.4062 31.5625 23.0781C31.3281 22.75 30.8594 22.6562 30.5312 22.9375L25.8437 26.5469C25.0469 27.1562 23.875 27.0156 23.2656 26.1719C22.7031 25.375 22.8437 24.2969 23.5937 23.6875L28.1406 20.0312ZM29.2187 25.8438L35.5 31.6094C36.3906 32.4531 36.4844 33.8594 35.6406 34.7969C34.8906 35.6406 33.625 35.7344 32.7344 35.125C32.6406 35.4062 32.4531 35.6875 32.2656 35.9219C31.4219 36.8125 30.0156 36.9062 29.0781 36.0625L28.2812 35.3125C28.1875 35.6875 28 36.0156 27.7656 36.2969C26.9219 37.1875 25.5156 37.2812 24.5781 36.4375L20.3125 32.5H19L19 22L22.375 19.75C23.0781 19.2812 23.9687 19 24.8125 19.0469C25.4219 19.0469 26.0312 19.1406 26.5469 19.375L22.6562 22.5156C21.2969 23.6406 21.0156 25.6562 22.0469 27.0625C23.1719 28.5625 25.3281 28.8906 26.7812 27.7188L29.2187 25.8438ZM13.75 22H17.5L17.5 32.5C17.5 33.3438 16.7969 34 16 34H14.5C13.6562 34 13 33.3438 13 32.5L13 22.75C13 22.375 13.3281 22 13.75 22ZM15.25 31C14.8281 31 14.5 31.375 14.5 31.75C14.5 32.1719 14.8281 32.5 15.25 32.5C15.625 32.5 16 32.1719 16 31.75C16 31.375 15.625 31 15.25 31ZM38.5 22H42.25C42.625 22 43 22.375 43 22.75L43 32.5C43 33.3438 42.2969 34 41.5 34H40C39.1562 34 38.5 33.3438 38.5 32.5L38.5 22ZM40 31.75C40 32.1719 40.3281 32.5 40.75 32.5C41.125 32.5 41.5 32.1719 41.5 31.75C41.5 31.375 41.125 31 40.75 31C40.3281 31 40 31.375 40 31.75Z" fill="url(#paint0_linear_2112_1977)"/>
<defs>
<linearGradient id="paint0_linear_2112_1977" x1="13.9648" y1="18.5284" x2="44.9925" y2="26.6146" gradientUnits="userSpaceOnUse">
<stop offset="0.0288462" stop-color="#77BABB"/>
<stop offset="0.153846" stop-color="#6EACB2"/>
<stop offset="0.274038" stop-color="#67A1AA"/>
<stop offset="0.384615" stop-color="#5A8E9E"/>
<stop offset="0.490385" stop-color="#4F7C93"/>
<stop offset="0.596154" stop-color="#538296"/>
<stop offset="0.706731" stop-color="#4C778F"/>
<stop offset="0.802885" stop-color="#436A87"/>
<stop offset="0.899038" stop-color="#3F6383"/>
<stop offset="1" stop-color="#2A446F"/>
</linearGradient>
</defs>
</svg>
