<svg width="56" height="56" viewBox="0 0 56 56" fill="none" xmlns="http://www.w3.org/2000/svg">
<rect width="56" height="56" rx="28" fill="#C6D2EC"/>
<path d="M29.125 17.125L29.125 17.6406C29.4062 17.6875 29.6875 17.7812 29.9687 17.8281C30.5781 18.0156 30.9062 18.625 30.7656 19.2344C30.5781 19.7969 29.9687 20.1719 29.3594 20.0312C28.8437 19.8906 28.375 19.7969 27.9531 19.7969C27.625 19.75 27.25 19.8437 27.0625 19.9844C26.9687 20.0312 26.9219 20.0781 26.875 20.125C26.875 20.125 26.875 20.1719 26.875 20.2656C26.875 20.3125 26.875 20.3594 27.0156 20.4062C27.2969 20.5469 27.6719 20.6875 28.2812 20.875L28.3281 20.875C28.8437 21.0625 29.5469 21.25 30.1094 21.625C30.7656 22 31.3281 22.7031 31.3281 23.7344C31.375 24.7656 30.8125 25.5156 30.1094 25.9844C29.7812 26.1719 29.4531 26.3125 29.0781 26.4062L29.0781 26.875C29.0781 27.5312 28.6094 28 27.9531 28C27.3437 28 26.8281 27.5312 26.8281 26.875L26.8281 26.3594C26.4062 26.2656 25.9844 26.125 25.6562 25.9844C25.5625 25.9844 25.4687 25.9375 25.375 25.8906C24.7656 25.7031 24.4375 25.0469 24.6719 24.4844C24.8594 23.875 25.4687 23.5469 26.0781 23.7812C26.2187 23.8281 26.3125 23.8281 26.4062 23.875C27.0625 24.1094 27.5312 24.25 28 24.25C28.375 24.2969 28.7031 24.2031 28.8906 24.0625C28.9844 24.0156 29.0312 23.9687 29.0781 23.9219C29.0781 23.9219 29.125 23.875 29.0781 23.7344C29.0781 23.6875 29.0781 23.6406 28.8906 23.5469C28.6562 23.3594 28.2344 23.2188 27.625 23.0312H27.5312C27.0625 22.8438 26.3594 22.6562 25.8437 22.3281C25.2344 21.9531 24.625 21.2969 24.5781 20.2656C24.5781 19.1875 25.1875 18.4844 25.8906 18.0625C26.2187 17.875 26.5 17.7344 26.8281 17.6875L26.8281 17.125C26.8281 16.5156 27.3438 16 27.9531 16C28.6094 16 29.0781 16.5156 29.0781 17.125H29.125ZM41.125 31.7969C41.7344 32.6406 41.5469 33.8125 40.7031 34.4219L34.7969 38.7812C33.6719 39.5781 32.3594 40 31 40H23.5H16C15.1562 40 14.5 39.3438 14.5 38.5L14.5 35.5C14.5 34.7031 15.1562 34 16 34H17.6875L19.7969 32.3125C20.875 31.4688 22.1875 31 23.5469 31H27.25H28H31C31.7969 31 32.5 31.7031 32.5 32.5C32.5 33.3438 31.7969 34 31 34H28H27.25C26.8281 34 26.5 34.375 26.5 34.75C26.5 35.1719 26.8281 35.5 27.25 35.5H32.875L38.5 31.375C39.3437 30.7656 40.5156 30.9531 41.125 31.7969ZM23.5469 34H23.5C23.5469 34 23.5469 34 23.5469 34Z" fill="url(#paint0_linear_2112_1965)"/>
<defs>
<linearGradient id="paint0_linear_2112_1965" x1="15.3683" y1="18.5284" x2="43.6348" y2="25.1583" gradientUnits="userSpaceOnUse">
<stop offset="0.0288462" stop-color="#77BABB"/>
<stop offset="0.153846" stop-color="#6EACB2"/>
<stop offset="0.274038" stop-color="#67A1AA"/>
<stop offset="0.384615" stop-color="#5A8E9E"/>
<stop offset="0.490385" stop-color="#4F7C93"/>
<stop offset="0.596154" stop-color="#538296"/>
<stop offset="0.706731" stop-color="#4C778F"/>
<stop offset="0.802885" stop-color="#436A87"/>
<stop offset="0.899038" stop-color="#3F6383"/>
<stop offset="1" stop-color="#2A446F"/>
</linearGradient>
</defs>
</svg>
