<svg width="56" height="56" viewBox="0 0 56 56" fill="none" xmlns="http://www.w3.org/2000/svg">
<rect width="56" height="56" rx="28" fill="#C6D2EC"/>
<path d="M28 16L37 16C38.6406 16 40 17.3594 40 19L40 25L40 37C40 38.6875 38.6406 40 37 40H28H19C17.3125 40 16 38.6875 16 37L16 25C16 23.3594 17.3125 22 19 22H25L25 19C25 17.3594 26.3125 16 28 16ZM19 30.25L19 31.75C19 32.1719 19.3281 32.5 19.75 32.5H21.25C21.625 32.5 22 32.1719 22 31.75L22 30.25C22 29.875 21.625 29.5 21.25 29.5H19.75C19.3281 29.5 19 29.875 19 30.25ZM28.75 31H30.25C30.625 31 31 30.6719 31 30.25L31 28.75C31 28.375 30.625 28 30.25 28H28.75C28.3281 28 28 28.375 28 28.75L28 30.25C28 30.6719 28.3281 31 28.75 31ZM34 30.25C34 30.6719 34.3281 31 34.75 31H36.25C36.625 31 37 30.6719 37 30.25L37 28.75C37 28.375 36.625 28 36.25 28H34.75C34.3281 28 34 28.375 34 28.75L34 30.25ZM19.75 25C19.3281 25 19 25.375 19 25.75L19 27.25C19 27.6719 19.3281 28 19.75 28H21.25C21.625 28 22 27.6719 22 27.25L22 25.75C22 25.375 21.625 25 21.25 25H19.75ZM28 19.75L28 21.25C28 21.6719 28.3281 22 28.75 22L30.25 22C30.625 22 31 21.6719 31 21.25L31 19.75C31 19.375 30.625 19 30.25 19H28.75C28.3281 19 28 19.375 28 19.75ZM34.75 19C34.3281 19 34 19.375 34 19.75L34 21.25C34 21.6719 34.3281 22 34.75 22H36.25C36.625 22 37 21.6719 37 21.25L37 19.75C37 19.375 36.625 19 36.25 19H34.75ZM28 25.75C28 26.1719 28.3281 26.5 28.75 26.5H30.25C30.625 26.5 31 26.1719 31 25.75L31 24.25C31 23.875 30.625 23.5 30.25 23.5L28.75 23.5C28.3281 23.5 28 23.875 28 24.25L28 25.75ZM34.75 26.5H36.25C36.625 26.5 37 26.1719 37 25.75L37 24.25C37 23.875 36.625 23.5 36.25 23.5H34.75C34.3281 23.5 34 23.875 34 24.25L34 25.75C34 26.1719 34.3281 26.5 34.75 26.5Z" fill="url(#paint0_linear_2112_1971)"/>
<defs>
<linearGradient id="paint0_linear_2112_1971" x1="16.7718" y1="18.5284" x2="42.1756" y2="23.8248" gradientUnits="userSpaceOnUse">
<stop offset="0.0288462" stop-color="#77BABB"/>
<stop offset="0.153846" stop-color="#6EACB2"/>
<stop offset="0.274038" stop-color="#67A1AA"/>
<stop offset="0.384615" stop-color="#5A8E9E"/>
<stop offset="0.490385" stop-color="#4F7C93"/>
<stop offset="0.596154" stop-color="#538296"/>
<stop offset="0.706731" stop-color="#4C778F"/>
<stop offset="0.802885" stop-color="#436A87"/>
<stop offset="0.899038" stop-color="#3F6383"/>
<stop offset="1" stop-color="#2A446F"/>
</linearGradient>
</defs>
</svg>
