<svg width="56" height="56" viewBox="0 0 56 56" fill="none" xmlns="http://www.w3.org/2000/svg">
<rect width="56" height="56" rx="28" fill="#C6D2EC"/>
<path d="M14.5 21.2969C14.5 20.1719 15.6719 19.4219 16.75 19.75C20.5 20.7344 24.25 19.7969 28 18.8594C32.0781 17.8281 36.1562 16.75 40.2344 18.2969C40.9844 18.5781 41.5 19.375 41.5 20.2187L41.5 34.75C41.5 35.875 40.2812 36.625 39.2031 36.2969C35.4531 35.2656 31.7031 36.25 28 37.1875C23.9219 38.2188 19.8437 39.2969 15.7656 37.75C14.9687 37.4688 14.5 36.6719 14.5 35.8281L14.5 21.2969ZM28 32.5C30.0625 32.5 31.75 30.4844 31.75 28C31.75 25.5156 30.0625 23.5 28 23.5C25.8906 23.5 24.25 25.5156 24.25 28C24.25 30.4844 25.8906 32.5 28 32.5ZM17.5 32.5L17.5 35.5H20.5C20.5 33.8594 19.1406 32.5 17.5 32.5ZM20.5 22.75H17.5L17.5 25.75C19.1406 25.75 20.5 24.4375 20.5 22.75ZM38.5 30.25C36.8125 30.25 35.5 31.6094 35.5 33.25H38.5L38.5 30.25ZM35.5 20.5C35.5 22.1875 36.8125 23.5 38.5 23.5L38.5 20.5H35.5Z" fill="url(#paint0_linear_2112_1960)"/>
<defs>
<linearGradient id="paint0_linear_2112_1960" x1="15.3683" y1="18.5284" x2="43.6348" y2="25.1583" gradientUnits="userSpaceOnUse">
<stop offset="0.0288462" stop-color="#77BABB"/>
<stop offset="0.153846" stop-color="#6EACB2"/>
<stop offset="0.274038" stop-color="#67A1AA"/>
<stop offset="0.384615" stop-color="#5A8E9E"/>
<stop offset="0.490385" stop-color="#4F7C93"/>
<stop offset="0.596154" stop-color="#538296"/>
<stop offset="0.706731" stop-color="#4C778F"/>
<stop offset="0.802885" stop-color="#436A87"/>
<stop offset="0.899038" stop-color="#3F6383"/>
<stop offset="1" stop-color="#2A446F"/>
</linearGradient>
</defs>
</svg>
