<svg width="56" height="56" viewBox="0 0 56 56" fill="none" xmlns="http://www.w3.org/2000/svg">
<rect width="56" height="56" rx="28" fill="#C6D2EC"/>
<path d="M27.3906 16.1406C27.7656 16 28.1875 16 28.5625 16.1406L39.0625 20.6406C39.7187 20.9219 40.0937 21.625 39.9531 22.3281C39.8125 23.0312 39.2031 23.5 38.5 23.5L38.5 23.875C38.5 24.5312 37.9844 25 37.375 25L18.625 25C17.9687 25 17.5 24.5312 17.5 23.875L17.5 23.5C16.75 23.5 16.1406 23.0312 16 22.3281C15.8594 21.625 16.2344 20.9219 16.8906 20.6406L27.3906 16.1406ZM22 26.5L22 35.5H23.875L23.875 26.5H26.875L26.875 35.5H29.125L29.125 26.5H32.125L32.125 35.5H34L34 26.5H36.9531L36.9531 35.7344C37 35.7344 37.0469 35.7344 37.0469 35.7812L39.2969 37.2812C39.8594 37.6562 40.0937 38.3125 39.9062 38.9688C39.7187 39.5781 39.1562 40 38.5 40H17.5C16.7969 40 16.2344 39.5781 16.0469 38.9688C15.8594 38.3125 16.0937 37.6562 16.6562 37.2812L18.9062 35.7812C18.9062 35.7344 18.9531 35.7344 19 35.7344L19 26.5H22ZM28 19C27.1562 19 26.5 19.7031 26.5 20.5C26.5 21.3438 27.1562 22 28 22C28.7969 22 29.5 21.3438 29.5 20.5C29.5 19.7031 28.7969 19 28 19Z" fill="url(#paint0_linear_2112_1955)"/>
<defs>
<linearGradient id="paint0_linear_2112_1955" x1="16.7718" y1="18.5284" x2="42.1756" y2="23.8248" gradientUnits="userSpaceOnUse">
<stop offset="0.0288462" stop-color="#77BABB"/>
<stop offset="0.153846" stop-color="#6EACB2"/>
<stop offset="0.274038" stop-color="#67A1AA"/>
<stop offset="0.384615" stop-color="#5A8E9E"/>
<stop offset="0.490385" stop-color="#4F7C93"/>
<stop offset="0.596154" stop-color="#538296"/>
<stop offset="0.706731" stop-color="#4C778F"/>
<stop offset="0.802885" stop-color="#436A87"/>
<stop offset="0.899038" stop-color="#3F6383"/>
<stop offset="1" stop-color="#2A446F"/>
</linearGradient>
</defs>
</svg>
