<svg width="62" height="62" viewBox="0 0 62 62" fill="none" xmlns="http://www.w3.org/2000/svg">
<circle opacity="0.12" cx="30.916" cy="30.916" r="30.916" fill="#377FE8"/>
<path d="M45.6465 29.916H31.709V15.9785C31.709 15.416 32.1465 14.916 32.709 14.916C40.3965 14.916 46.709 21.2285 46.709 28.916C46.709 29.4785 46.209 29.916 45.6465 29.916ZM26.584 17.291C27.709 17.041 28.709 17.9785 28.709 19.1035V32.916H42.5215C43.6465 32.916 44.584 33.916 44.334 35.041C42.8965 41.8535 36.8965 46.916 29.709 46.916C21.3965 46.916 14.709 40.2285 14.709 31.916C14.709 24.7285 19.7715 18.7285 26.584 17.291Z" fill="#7EC4C1"/>
</svg>
