<svg width="62" height="62" viewBox="0 0 62 62" fill="none" xmlns="http://www.w3.org/2000/svg">
<circle opacity="0.12" cx="30.916" cy="30.916" r="30.916" fill="#377FE8"/>
<path d="M15.3125 15.166L18.3125 17.166C19 17.666 19.1875 18.6035 18.75 19.291C18.25 19.9785 17.3125 20.166 16.625 19.666L13.625 17.666C12.9375 17.2285 12.75 16.291 13.25 15.6035C13.6875 14.916 14.625 14.7285 15.3125 15.166ZM48.3125 17.666L45.3125 19.666C44.625 20.166 43.6875 19.9785 43.25 19.291C42.75 18.6035 42.9375 17.666 43.625 17.166L46.625 15.166C47.3125 14.7285 48.25 14.916 48.75 15.6035C49.1875 16.291 49 17.2285 48.3125 17.666ZM12.5 24.916H16.5C17.3125 24.916 18 25.6035 18 26.416C18 27.291 17.3125 27.916 16.5 27.916H12.5C11.625 27.916 11 27.291 11 26.416C11 25.6035 11.625 24.916 12.5 24.916ZM45.5 24.916H49.5C50.3125 24.916 51 25.6035 51 26.416C51 27.291 50.3125 27.916 49.5 27.916H45.5C44.625 27.916 44 27.291 44 26.416C44 25.6035 44.625 24.916 45.5 24.916ZM18.3125 35.666L15.3125 37.666C14.625 38.166 13.6875 37.9785 13.25 37.291C12.75 36.6035 12.9375 35.666 13.625 35.166L16.625 33.166C17.3125 32.7285 18.25 32.916 18.75 33.6035C19.1875 34.291 19 35.2285 18.3125 35.666ZM45.3125 33.2285L48.3125 35.2285C49 35.666 49.1875 36.6035 48.75 37.291C48.25 37.9785 47.3125 38.166 46.625 37.7285L43.625 35.7285C42.9375 35.2285 42.75 34.291 43.25 33.6035C43.6875 32.916 44.625 32.7285 45.3125 33.2285ZM39.0625 33.541C37.8125 35.2285 36.5625 36.9785 36 38.916H26C25.375 36.9785 24.125 35.2285 22.875 33.541C22.5625 33.1035 22.25 32.666 21.9375 32.2285C20.6875 30.416 20 28.291 20 25.916C20 19.8535 24.875 14.916 31 14.916C37.0625 14.916 42 19.8535 42 25.916C42 28.291 41.25 30.416 40 32.2285C39.6875 32.666 39.375 33.1035 39.0625 33.541ZM36 41.916C36 44.7285 33.75 46.916 31 46.916C28.1875 46.916 26 44.7285 26 41.916V40.916H36V41.916ZM31 20.916C31.5 20.916 32 20.4785 32 19.916C32 19.416 31.5 18.916 31 18.916C27.125 18.916 24 22.1035 24 25.916C24 26.4785 24.4375 26.916 25 26.916C25.5 26.916 26 26.4785 26 25.916C26 23.166 28.1875 20.916 31 20.916Z" fill="#7EC4C1"/>
</svg>
