<svg width="62" height="62" viewBox="0 0 62 62" fill="none" xmlns="http://www.w3.org/2000/svg">
<circle opacity="0.12" cx="30.916" cy="30.916" r="30.916" fill="#377FE8"/>
<path d="M23.1875 23.4785C21.375 21.666 21.375 18.6035 23.1875 16.7285C25.0625 14.916 28 14.916 29.875 16.7285L31 17.8535L32.0625 16.7285C33.9375 14.916 36.875 14.916 38.75 16.7285C40.5625 18.6035 40.5625 21.666 38.75 23.4785L32.375 29.9785C32 30.3535 31.5 30.541 31 30.541C30.4375 30.541 29.9375 30.3535 29.5625 29.9785L23.1875 23.4785ZM48.5 35.9785C49.3125 37.1035 49.0625 38.666 47.9375 39.4785L40.0625 45.291C38.5625 46.3535 36.8125 46.916 35 46.916H25H15C13.875 46.916 13 46.041 13 44.916V40.916C13 39.8535 13.875 38.916 15 38.916H17.25L20.0625 36.666C21.5 35.541 23.25 34.916 25.0625 34.916H30H31H35C36.0625 34.916 37 35.8535 37 36.916C37 38.041 36.0625 38.916 35 38.916H31H30C29.4375 38.916 29 39.416 29 39.916C29 40.4785 29.4375 40.916 30 40.916H37.5L45 35.416C46.125 34.6035 47.6875 34.8535 48.5 35.9785ZM25.0625 38.916H25C25.0625 38.916 25.0625 38.916 25.0625 38.916Z" fill="#7EC4C1"/>
</svg>
