<svg width="62" height="62" viewBox="0 0 62 62" fill="none" xmlns="http://www.w3.org/2000/svg">
<circle opacity="0.12" cx="30.916" cy="30.916" r="30.916" fill="#377FE8"/>
<path d="M21 16.916H41C43.1875 16.916 45 18.7285 45 20.916V40.916C45 43.166 43.1875 44.916 41 44.916H21C18.75 44.916 17 43.166 17 40.916V20.916C17 18.7285 18.75 16.916 21 16.916ZM25 28.916C23.875 28.916 23 29.8535 23 30.916V36.916C23 38.041 23.875 38.916 25 38.916C26.0625 38.916 27 38.041 27 36.916V30.916C27 29.8535 26.0625 28.916 25 28.916ZM29 24.916V36.916C29 38.041 29.875 38.916 31 38.916C32.0625 38.916 33 38.041 33 36.916V24.916C33 23.8535 32.0625 22.916 31 22.916C29.875 22.916 29 23.8535 29 24.916ZM37 32.916C35.875 32.916 35 33.8535 35 34.916V36.916C35 38.041 35.875 38.916 37 38.916C38.0625 38.916 39 38.041 39 36.916V34.916C39 33.8535 38.0625 32.916 37 32.916Z" fill="#7EC4C1"/>
</svg>
